<mxfile host="app.diagrams.net" modified="2024-03-21T07:11:42.028Z" agent="Mozilla/5.0 (Windows NT 10.0; Win64; x64) AppleWebKit/537.36 (KHTML, like Gecko) Chrome/86.0.4240.75 Safari/537.36" version="21.6.5" etag="kVEavl0hVCLmZ7iDYPv8" type="github">
  <diagram name="第 1 页" id="CzjjCCMxC3J6doABO_d7">
    <mxGraphModel>
      <root>
        <mxCell id="0" />
        <mxCell id="1" parent="0" />
      </root>
    </mxGraphModel>
  </diagram>
</mxfile>
